ffmpeg started on 2025-06-06 at 20:00:49
Report written to "D:\Convert\FFMetrics\reports\psnr_report-6.txt"
Log level: 32
Command line:
ffmpeg -hide_banner -nostdin -i "G:\\\xc0\xed\xe8\xec\xe5\\\xce\xed\xe3\xee\xe8\xed\xe3\xe8\\!_36_\xce\xf1\xe5\xed\xfc_2024\\DreamCast\\\xd0\xee\xed \xca\xe0\xec\xee\xed\xee\xf5\xe0\xf1\xe8 - \xcd\xe5\xe2\xec\xe5\xed\xff\xe5\xec\xfb\xe9 \xe4\xe5\xf2\xe5\xea\xf2\xe8\xe2\\\xd2\xc2-2\\DC_Kamonohashi_Ron_no_Kindan_Suiri_2nd_Season_12_Telegram_HEVC.mkv" -i "G:\\\xc0\xed\xe8\xec\xe5\\\xce\xed\xe3\xee\xe8\xed\xe3\xe8\\!_36_\xce\xf1\xe5\xed\xfc_2024\\DreamCast\\\xd0\xee\xed \xca\xe0\xec\xee\xed\xee\xf5\xe0\xf1\xe8 - \xcd\xe5\xe2\xec\xe5\xed\xff\xe5\xec\xfb\xe9 \xe4\xe5\xf2\xe5\xea\xf2\xe8\xe2\\\xd2\xc2-2\\DC_Kamonohashi_Ron_no_Kindan_Suiri_2nd_Season_12_Telegram.mp4" -lavfi "[0:v]settb=AVTB,setpts=PTS-STARTPTS,format=pix_fmts=yuv420p10,fps=24000/1001,scale=1920:1080:flags=bicubic[main];[1:v]settb=AVTB,setpts=PTS-STARTPTS,format=pix_fmts=yuv420p,fps=24000/1001,scale=1920:1080:flags=bicubic[ref];[main][ref]psnr=eof_action=endall:stats_file='D\\:/Convert/FFMetrics/logs/psnr_logfile-6.txt'" -f null -
Input #0, matroska,webm, from 'G:\Аниме\Онгоинги\!_36_Осень_2024\DreamCast\Рон Камонохаси - Невменяемый детектив\ТВ-2\DC_Kamonohashi_Ron_no_Kindan_Suiri_2nd_Season_12_Telegram_HEVC.mkv':
  Metadata:
    COMPATIBLE_BRANDS: isomiso2avc1mp41
    MAJOR_BRAND     : isom
    MINOR_VERSION   : 512
    ENCODER         : Lavf61.7.100
  Duration: 00:23:46.69, start: -0.021000, bitrate: 817 kb/s
  Stream #0:0: Video: hevc (Main 10), yuv420p10le(tv, bt709, progressive), 1920x1080 [SAR 1:1 DAR 16:9], 23.98 fps, 23.98 tbr, 1k tbn (default)
      Metadata:
        HANDLER_NAME    : VideoHandler
        VENDOR_ID       : [0][0][0][0]
        ENCODER         : Lavc61.19.100 libx265
        BPS             : 619853
        DURATION        : 00:23:46.591708333
        NUMBER_OF_FRAMES: 34204
        NUMBER_OF_BYTES : 110534668
        _STATISTICS_WRITING_APP: mkvpropedit v66.0.0 ('Josie') 64-bit
        _STATISTICS_WRITING_DATE_UTC: 2025-06-04 08:40:11
        _STATISTICS_TAGS: BPS DURATION NUMBER_OF_FRAMES NUMBER_OF_BYTES
  Stream #0:1: Audio: aac (LC), 48000 Hz, stereo, fltp (default)
      Metadata:
        HANDLER_NAME    : SoundHandler
        VENDOR_ID       : [0][0][0][0]
        ENCODER         : Lavc61.19.100 aac
        BPS             : 193800
        DURATION        : 00:23:46.688000000
        NUMBER_OF_FRAMES: 66877
        NUMBER_OF_BYTES : 34561618
        _STATISTICS_WRITING_APP: mkvpropedit v66.0.0 ('Josie') 64-bit
        _STATISTICS_WRITING_DATE_UTC: 2025-06-04 08:40:11
        _STATISTICS_TAGS: BPS DURATION NUMBER_OF_FRAMES NUMBER_OF_BYTES
Input #1, mov,mp4,m4a,3gp,3g2,mj2, from 'G:\Аниме\Онгоинги\!_36_Осень_2024\DreamCast\Рон Камонохаси - Невменяемый детектив\ТВ-2\DC_Kamonohashi_Ron_no_Kindan_Suiri_2nd_Season_12_Telegram.mp4':
  Metadata:
    major_brand     : isom
    minor_version   : 512
    compatible_brands: isomiso2avc1mp41
    encoder         : Lavf61.1.100
  Duration: 00:23:46.66, start: 0.000000, bitrate: 3392 kb/s
  Stream #1:0[0x1](und): Video: h264 (High) (avc1 / 0x31637661), yuv420p(tv, bt709, progressive), 1920x1080 [SAR 1:1 DAR 16:9], 3244 kb/s, 23.98 fps, 23.98 tbr, 24k tbn (default)
      Metadata:
        handler_name    : VideoHandler
        vendor_id       : [0][0][0][0]
        encoder         : Lavc61.3.100 h264_qsv
  Stream #1:1[0x2](und): Audio: aac (HE-AACv2) (mp4a / 0x6134706D), 48000 Hz, stereo, fltp, 144 kb/s (default)
      Metadata:
        handler_name    : SoundHandler
        vendor_id       : [0][0][0][0]
Stream mapping:
  Stream #0:0 (hevc) -> settb:default
  Stream #1:0 (h264) -> settb:default
  psnr:default -> Stream #0:0 (wrapped_avframe)
  Stream #0:1 -> #0:1 (aac (native) -> pcm_s16le (native))
Output #0, null, to 'pipe:':
  Metadata:
    COMPATIBLE_BRANDS: isomiso2avc1mp41
    MAJOR_BRAND     : isom
    MINOR_VERSION   : 512
    encoder         : Lavf61.7.100
  Stream #0:0: Video: wrapped_avframe, yuv420p10le(tv, bt709, progressive), 1920x1080 [SAR 1:1 DAR 16:9], q=2-31, 200 kb/s, 23.98 fps, 23.98 tbn
      Metadata:
        encoder         : Lavc61.19.100 wrapped_avframe
  Stream #0:1: Audio: pcm_s16le, 48000 Hz, stereo, s16, 1536 kb/s (default)
      Metadata:
        HANDLER_NAME    : SoundHandler
        VENDOR_ID       : [0][0][0][0]
        _STATISTICS_TAGS: BPS DURATION NUMBER_OF_FRAMES NUMBER_OF_BYTES
        BPS             : 193800
        DURATION        : 00:23:46.688000000
        NUMBER_OF_FRAMES: 66877
        NUMBER_OF_BYTES : 34561618
        _STATISTICS_WRITING_APP: mkvpropedit v66.0.0 ('Josie') 64-bit
        _STATISTICS_WRITING_DATE_UTC: 2025-06-04 08:40:11
        encoder         : Lavc61.19.100 pcm_s16le
frame=  173 fps=0.0 q=-0.0 size=N/A time=00:00:07.21 bitrate=N/A speed=13.8x    frame=  430 fps=413 q=-0.0 size=N/A time=00:00:17.93 bitrate=N/A speed=17.2x    frame=  699 fps=451 q=-0.0 size=N/A time=00:00:29.15 bitrate=N/A speed=18.8x    frame=  966 fps=467 q=-0.0 size=N/A time=00:00:40.29 bitrate=N/A speed=19.5x    frame= 1206 fps=466 q=-0.0 size=N/A time=00:00:50.30 bitrate=N/A speed=19.5x    frame= 1463 fps=472 q=-0.0 size=N/A time=00:01:01.01 bitrate=N/A speed=19.7x    frame= 1686 fps=466 q=-0.0 size=N/A time=00:01:10.32 bitrate=N/A speed=19.4x    frame= 1932 fps=467 q=-0.0 size=N/A time=00:01:20.58 bitrate=N/A speed=19.5x    frame= 2180 fps=469 q=-0.0 size=N/A time=00:01:30.92 bitrate=N/A speed=19.6x    frame= 2435 fps=472 q=-0.0 size=N/A time=00:01:41.55 bitrate=N/A speed=19.7x    frame= 2677 fps=471 q=-0.0 size=N/A time=00:01:51.65 bitrate=N/A speed=19.7x    frame= 2848 fps=460 q=-0.0 size=N/A time=00:01:58.78 bitrate=N/A speed=19.2x    frame= 3048 fps=454 q=-0.0 size=N/A time=00:02:07.12 bitrate=N/A speed=  19x    frame= 3246 fps=449 q=-0.0 size=N/A time=00:02:15.38 bitrate=N/A speed=18.7x    frame= 3462 fps=447 q=-0.0 size=N/A time=00:02:24.39 bitrate=N/A speed=18.7x    frame= 3717 fps=451 q=-0.0 size=N/A time=00:02:35.02 bitrate=N/A speed=18.8x    frame= 3989 fps=455 q=-0.0 size=N/A time=00:02:46.37 bitrate=N/A speed=  19x    frame= 4265 fps=459 q=-0.0 size=N/A time=00:02:57.88 bitrate=N/A speed=19.2x    frame= 4538 fps=463 q=-0.0 size=N/A time=00:03:09.27 bitrate=N/A speed=19.3x    frame= 4794 fps=465 q=-0.0 size=N/A time=00:03:19.94 bitrate=N/A speed=19.4x    frame= 5038 fps=465 q=-0.0 size=N/A time=00:03:30.12 bitrate=N/A speed=19.4x    frame= 5316 fps=468 q=-0.0 size=N/A time=00:03:41.72 bitrate=N/A speed=19.5x    frame= 5595 fps=472 q=-0.0 size=N/A time=00:03:53.35 bitrate=N/A speed=19.7x    frame= 5877 fps=475 q=-0.0 size=N/A time=00:04:05.11 bitrate=N/A speed=19.8x    frame= 6144 fps=476 q=-0.0 size=N/A time=00:04:16.25 bitrate=N/A speed=19.9x    frame= 6415 fps=479 q=-0.0 size=N/A time=00:04:27.55 bitrate=N/A speed=  20x    frame= 6668 fps=479 q=-0.0 size=N/A time=00:04:38.11 bitrate=N/A speed=  20x    frame= 6947 fps=481 q=-0.0 size=N/A time=00:04:49.74 bitrate=N/A speed=20.1x    frame= 7224 fps=483 q=-0.0 size=N/A time=00:05:01.30 bitrate=N/A speed=20.1x    frame= 7475 fps=483 q=-0.0 size=N/A time=00:05:11.76 bitrate=N/A speed=20.1x    frame= 7723 fps=483 q=-0.0 size=N/A time=00:05:22.11 bitrate=N/A speed=20.1x    frame= 7988 fps=484 q=-0.0 size=N/A time=00:05:33.16 bitrate=N/A speed=20.2x    frame= 8256 fps=485 q=-0.0 size=N/A time=00:05:44.34 bitrate=N/A speed=20.2x    frame= 8505 fps=485 q=-0.0 size=N/A time=00:05:54.72 bitrate=N/A speed=20.2x    frame= 8775 fps=486 q=-0.0 size=N/A time=00:06:05.99 bitrate=N/A speed=20.3x    frame= 9050 fps=487 q=-0.0 size=N/A time=00:06:17.46 bitrate=N/A speed=20.3x    frame= 9332 fps=489 q=-0.0 size=N/A time=00:06:29.22 bitrate=N/A speed=20.4x    frame= 9595 fps=489 q=-0.0 size=N/A time=00:06:40.19 bitrate=N/A speed=20.4x    frame= 9860 fps=490 q=-0.0 size=N/A time=00:06:51.24 bitrate=N/A speed=20.4x    frame=10120 fps=491 q=-0.0 size=N/A time=00:07:02.08 bitrate=N/A speed=20.5x    frame=10383 fps=491 q=-0.0 size=N/A time=00:07:13.05 bitrate=N/A speed=20.5x    frame=10652 fps=492 q=-0.0 size=N/A time=00:07:24.27 bitrate=N/A speed=20.5x    frame=10893 fps=491 q=-0.0 size=N/A time=00:07:34.32 bitrate=N/A speed=20.5x    frame=11148 fps=491 q=-0.0 size=N/A time=00:07:44.96 bitrate=N/A speed=20.5x    frame=11406 fps=491 q=-0.0 size=N/A time=00:07:55.72 bitrate=N/A speed=20.5x    frame=11660 fps=491 q=-0.0 size=N/A time=00:08:06.31 bitrate=N/A speed=20.5x    frame=11917 fps=492 q=-0.0 size=N/A time=00:08:17.03 bitrate=N/A speed=20.5x    frame=12188 fps=492 q=-0.0 size=N/A time=00:08:28.34 bitrate=N/A speed=20.5x    frame=12464 fps=493 q=-0.0 size=N/A time=00:08:39.85 bitrate=N/A speed=20.6x    frame=12736 fps=494 q=-0.0 size=N/A time=00:08:51.19 bitrate=N/A speed=20.6x    frame=12995 fps=494 q=-0.0 size=N/A time=00:09:01.99 bitrate=N/A speed=20.6x    frame=13274 fps=495 q=-0.0 size=N/A time=00:09:13.63 bitrate=N/A speed=20.6x    frame=13540 fps=496 q=-0.0 size=N/A time=00:09:24.73 bitrate=N/A speed=20.7x    frame=13803 fps=496 q=-0.0 size=N/A time=00:09:35.70 bitrate=N/A speed=20.7x    frame=14040 fps=495 q=-0.0 size=N/A time=00:09:45.58 bitrate=N/A speed=20.6x    frame=14296 fps=495 q=-0.0 size=N/A time=00:09:56.26 bitrate=N/A speed=20.6x    frame=14570 fps=495 q=-0.0 size=N/A time=00:10:07.69 bitrate=N/A speed=20.7x    frame=14843 fps=496 q=-0.0 size=N/A time=00:10:19.07 bitrate=N/A speed=20.7x    frame=15103 fps=496 q=-0.0 size=N/A time=00:10:29.92 bitrate=N/A speed=20.7x    frame=15353 fps=496 q=-0.0 size=N/A time=00:10:40.34 bitrate=N/A speed=20.7x    frame=15584 fps=495 q=-0.0 size=N/A time=00:10:49.98 bitrate=N/A speed=20.7x    frame=15822 fps=495 q=-0.0 size=N/A time=00:10:59.90 bitrate=N/A speed=20.6x    frame=16078 fps=495 q=-0.0 size=N/A time=00:11:10.58 bitrate=N/A speed=20.6x    frame=16343 fps=495 q=-0.0 size=N/A time=00:11:21.63 bitrate=N/A speed=20.6x    frame=16598 fps=495 q=-0.0 size=N/A time=00:11:32.27 bitrate=N/A speed=20.6x    frame=16868 fps=495 q=-0.0 size=N/A time=00:11:43.53 bitrate=N/A speed=20.7x    frame=17073 fps=494 q=-0.0 size=N/A time=00:11:52.08 bitrate=N/A speed=20.6x    frame=17354 fps=495 q=-0.0 size=N/A time=00:12:03.80 bitrate=N/A speed=20.6x    frame=17602 fps=494 q=-0.0 size=N/A time=00:12:14.15 bitrate=N/A speed=20.6x    frame=17825 fps=494 q=-0.0 size=N/A time=00:12:23.45 bitrate=N/A speed=20.6x    frame=18085 fps=494 q=-0.0 size=N/A time=00:12:34.29 bitrate=N/A speed=20.6x    frame=18308 fps=493 q=-0.0 size=N/A time=00:12:43.59 bitrate=N/A speed=20.6x    frame=18525 fps=492 q=-0.0 size=N/A time=00:12:52.64 bitrate=N/A speed=20.5x    frame=18722 fps=490 q=-0.0 size=N/A time=00:13:00.86 bitrate=N/A speed=20.5x    frame=18955 fps=490 q=-0.0 size=N/A time=00:13:10.58 bitrate=N/A speed=20.4x    frame=19221 fps=490 q=-0.0 size=N/A time=00:13:21.67 bitrate=N/A speed=20.4x    frame=19468 fps=490 q=-0.0 size=N/A time=00:13:31.97 bitrate=N/A speed=20.4x    frame=19756 fps=491 q=-0.0 size=N/A time=00:13:43.98 bitrate=N/A speed=20.5x    frame=20026 fps=491 q=-0.0 size=N/A time=00:13:55.25 bitrate=N/A speed=20.5x    frame=20306 fps=492 q=-0.0 size=N/A time=00:14:06.92 bitrate=N/A speed=20.5x    frame=20578 fps=492 q=-0.0 size=N/A time=00:14:18.27 bitrate=N/A speed=20.5x    frame=20804 fps=492 q=-0.0 size=N/A time=00:14:27.70 bitrate=N/A speed=20.5x    frame=21044 fps=491 q=-0.0 size=N/A time=00:14:37.71 bitrate=N/A speed=20.5x    frame=21283 fps=491 q=-0.0 size=N/A time=00:14:47.67 bitrate=N/A speed=20.5x    frame=21527 fps=491 q=-0.0 size=N/A time=00:14:57.85 bitrate=N/A speed=20.5x    frame=21783 fps=491 q=-0.0 size=N/A time=00:15:08.53 bitrate=N/A speed=20.5x    frame=22033 fps=491 q=-0.0 size=N/A time=00:15:18.95 bitrate=N/A speed=20.5x    frame=22275 fps=491 q=-0.0 size=N/A time=00:15:29.05 bitrate=N/A speed=20.5x    frame=22529 fps=491 q=-0.0 size=N/A time=00:15:39.64 bitrate=N/A speed=20.5x    frame=22788 fps=491 q=-0.0 size=N/A time=00:15:50.44 bitrate=N/A speed=20.5x    frame=23058 fps=491 q=-0.0 size=N/A time=00:16:01.71 bitrate=N/A speed=20.5x    frame=23315 fps=491 q=-0.0 size=N/A time=00:16:12.42 bitrate=N/A speed=20.5x    frame=23599 fps=492 q=-0.0 size=N/A time=00:16:24.27 bitrate=N/A speed=20.5x    frame=23864 fps=492 q=-0.0 size=N/A time=00:16:35.32 bitrate=N/A speed=20.5x    frame=24125 fps=492 q=-0.0 size=N/A time=00:16:46.21 bitrate=N/A speed=20.5x    frame=24367 fps=492 q=-0.0 size=N/A time=00:16:56.30 bitrate=N/A speed=20.5x    frame=24646 fps=493 q=-0.0 size=N/A time=00:17:07.94 bitrate=N/A speed=20.5x    frame=24924 fps=493 q=-0.0 size=N/A time=00:17:19.53 bitrate=N/A speed=20.6x    frame=25179 fps=493 q=-0.0 size=N/A time=00:17:30.17 bitrate=N/A speed=20.6x    frame=25404 fps=493 q=-0.0 size=N/A time=00:17:39.55 bitrate=N/A speed=20.5x    frame=25638 fps=492 q=-0.0 size=N/A time=00:17:49.31 bitrate=N/A speed=20.5x    frame=25901 fps=492 q=-0.0 size=N/A time=00:18:00.28 bitrate=N/A speed=20.5x    frame=26173 fps=493 q=-0.0 size=N/A time=00:18:11.63 bitrate=N/A speed=20.5x    frame=26448 fps=493 q=-0.0 size=N/A time=00:18:23.10 bitrate=N/A speed=20.6x    frame=26677 fps=493 q=-0.0 size=N/A time=00:18:32.65 bitrate=N/A speed=20.5x    frame=26947 fps=493 q=-0.0 size=N/A time=00:18:43.91 bitrate=N/A speed=20.6x    frame=27164 fps=492 q=-0.0 size=N/A time=00:18:52.96 bitrate=N/A speed=20.5x    frame=27403 fps=492 q=-0.0 size=N/A time=00:19:02.93 bitrate=N/A speed=20.5x    frame=27648 fps=492 q=-0.0 size=N/A time=00:19:13.15 bitrate=N/A speed=20.5x    frame=27932 fps=492 q=-0.0 size=N/A time=00:19:24.99 bitrate=N/A speed=20.5x    frame=28204 fps=493 q=-0.0 size=N/A time=00:19:36.34 bitrate=N/A speed=20.5x    frame=28479 fps=493 q=-0.0 size=N/A time=00:19:47.81 bitrate=N/A speed=20.6x    frame=28757 fps=493 q=-0.0 size=N/A time=00:19:59.40 bitrate=N/A speed=20.6x    frame=29044 fps=494 q=-0.0 size=N/A time=00:20:11.37 bitrate=N/A speed=20.6x    frame=29300 fps=494 q=-0.0 size=N/A time=00:20:22.05 bitrate=N/A speed=20.6x    frame=29590 fps=495 q=-0.0 size=N/A time=00:20:34.14 bitrate=N/A speed=20.6x    frame=29864 fps=495 q=-0.0 size=N/A time=00:20:45.57 bitrate=N/A speed=20.6x    frame=30122 fps=495 q=-0.0 size=N/A time=00:20:56.33 bitrate=N/A speed=20.6x    frame=30392 fps=495 q=-0.0 size=N/A time=00:21:07.59 bitrate=N/A speed=20.7x    frame=30651 fps=495 q=-0.0 size=N/A time=00:21:18.40 bitrate=N/A speed=20.7x    frame=30886 fps=495 q=-0.0 size=N/A time=00:21:28.20 bitrate=N/A speed=20.6x    frame=31145 fps=495 q=-0.0 size=N/A time=00:21:39.00 bitrate=N/A speed=20.6x    frame=31392 fps=495 q=-0.0 size=N/A time=00:21:49.30 bitrate=N/A speed=20.6x    frame=31673 fps=495 q=-0.0 size=N/A time=00:22:01.02 bitrate=N/A speed=20.7x    frame=31932 fps=495 q=-0.0 size=N/A time=00:22:11.83 bitrate=N/A speed=20.7x    frame=32198 fps=495 q=-0.0 size=N/A time=00:22:22.92 bitrate=N/A speed=20.7x    frame=32454 fps=495 q=-0.0 size=N/A time=00:22:33.60 bitrate=N/A speed=20.7x    frame=32698 fps=495 q=-0.0 size=N/A time=00:22:43.77 bitrate=N/A speed=20.7x    frame=32951 fps=495 q=-0.0 size=N/A time=00:22:54.33 bitrate=N/A speed=20.7x    frame=33190 fps=495 q=-0.0 size=N/A time=00:23:04.29 bitrate=N/A speed=20.6x    frame=33404 fps=494 q=-0.0 size=N/A time=00:23:13.22 bitrate=N/A speed=20.6x    frame=33658 fps=494 q=-0.0 size=N/A time=00:23:23.81 bitrate=N/A speed=20.6x    frame=33914 fps=494 q=-0.0 size=N/A time=00:23:34.49 bitrate=N/A speed=20.6x    frame=34128 fps=494 q=-0.0 size=N/A time=00:23:43.42 bitrate=N/A speed=20.6x    [Parsed_psnr_10 @ 0000027f16c05500] PSNR y:49.711754 u:50.606390 v:51.305071 average:50.084327 min:42.227212 max:inf
[out#0/null @ 0000027f16ef5a00] video:14697KiB audio:267508KiB subtitle:0KiB other streams:0KiB global headers:0KiB muxing overhead: unknown
frame=34204 fps=494 q=-0.0 Lsize=N/A time=00:23:46.59 bitrate=N/A speed=20.6x    
